<svg width="16" height="11" viewBox="0 0 16 11" xmlns="http://www.w3.org/2000/svg">
    <path d="M1.069,0L13.33,0C13.916,0 14.399,0.483 14.399,1.069C14.399,1.655 13.916,2.138 13.33,2.138L1.07,2.138C0.484,2.138 0.001,1.655 0.001,1.069C0.001,0.483 0.484,0 1.07,0L1.069,0ZM5.336,4.275L13.297,4.275C13.308,4.275 13.319,4.275 13.33,4.275C13.916,4.275 14.399,4.757 14.399,5.344C14.399,5.93 13.916,6.413 13.33,6.413C13.319,6.413 13.308,6.412 13.297,6.412L5.337,6.412C5.326,6.412 5.316,6.413 5.305,6.413C4.718,6.413 4.236,5.93 4.236,5.344C4.236,4.757 4.718,4.275 5.305,4.275C5.316,4.275 5.326,4.275 5.337,4.275L5.336,4.275ZM3.551,8.55L13.363,8.55C13.937,8.568 14.399,9.044 14.399,9.619C14.399,10.193 13.937,10.669 13.363,10.687L3.552,10.687C2.978,10.669 2.515,10.193 2.515,9.619C2.515,9.044 2.978,8.568 3.552,8.55L3.551,8.55Z" style="fill-rule:nonzero;"/>
</svg>